<svg width="20" height="20" viewBox="0 0 20 20" fill="none" xmlns="http://www.w3.org/2000/svg">
<path d="M5.94843 18.8193H3.59639C2.43858 18.8193 1.5 17.8807 1.5 16.7229V7.45097C1.5 6.78238 1.81891 6.15389 2.35849 5.75909L8.31006 1.40451C8.66928 1.14167 9.10284 1 9.54795 1H10.6002C11.065 1 11.5166 1.15447 11.8841 1.43914L17.4586 5.75777C17.9711 6.15483 18.2711 6.76668 18.2711 7.41502V16.7229C18.2711 17.8807 17.3325 18.8193 16.1747 18.8193H14.2317C13.0739 18.8193 12.1353 17.8807 12.1353 16.7229V15.0629C12.1353 13.9333 11.2196 13.0177 10.0901 13.0177C8.96051 13.0177 8.04481 13.9333 8.04481 15.0629V16.7229C8.04481 17.8807 7.10623 18.8193 5.94843 18.8193Z" fill="#383230"/>
</svg>
