<svg width="20" height="20" viewBox="0 0 20 20" fill="none" xmlns="http://www.w3.org/2000/svg">
<path d="M10 9.68153C10.5156 9.68153 10.9572 9.49177 11.3247 9.11226C11.6916 8.73338 11.875 8.27771 11.875 7.74522C11.875 7.21274 11.6916 6.75674 11.3247 6.37722C10.9572 5.99835 10.5156 5.80892 10 5.80892C9.48438 5.80892 9.04313 5.99835 8.67625 6.37722C8.30875 6.75674 8.125 7.21274 8.125 7.74522C8.125 8.27771 8.30875 8.73338 8.67625 9.11226C9.04313 9.49177 9.48438 9.68153 10 9.68153ZM10 19C9.875 19 9.75 18.9758 9.625 18.9274C9.5 18.879 9.39062 18.8144 9.29688 18.7338C7.01563 16.6522 5.3125 14.7201 4.1875 12.9374C3.0625 11.1541 2.5 9.4879 2.5 7.93885C2.5 5.51847 3.25406 3.59023 4.76219 2.15414C6.26969 0.718047 8.01563 0 10 0C11.9844 0 13.7303 0.718047 15.2378 2.15414C16.7459 3.59023 17.5 5.51847 17.5 7.93885C17.5 9.4879 16.9375 11.1541 15.8125 12.9374C14.6875 14.7201 12.9844 16.6522 10.7031 18.7338C10.6094 18.8144 10.5 18.879 10.375 18.9274C10.25 18.9758 10.125 19 10 19Z" fill="#383230"/>
</svg>
