<svg width="23" height="24" viewBox="0 0 23 24" fill="none" xmlns="http://www.w3.org/2000/svg">
<path d="M14.8965 21.1035C14.8964 21.8717 14.504 22.6082 13.8057 23.1514C13.1073 23.6945 12.1604 24 11.1729 24C10.1851 24 9.23748 23.6946 8.53906 23.1514C7.84087 22.6082 7.44828 21.8716 7.44824 21.1035H14.8965ZM11.1719 0C17.1768 0 19.2607 4.67295 19.5518 7.00977V13.165C19.5518 14.034 19.8934 14.8681 20.5029 15.4873L21.834 16.8398C22.161 17.1721 22.3447 17.6197 22.3447 18.0859C22.3447 19.0669 21.5493 19.8623 20.5684 19.8623H1.77539C0.79468 19.8621 3.74842e-07 19.0667 0 18.0859C0 17.6198 0.182776 17.1721 0.509766 16.8398L1.8418 15.4873C2.45131 14.8681 2.79296 14.0339 2.79297 13.165V7.00977C3.08406 4.67298 5.1672 0.000166607 11.1719 0Z" fill="#D9D9D9"/>
</svg>
