<svg width="21" height="22" viewBox="0 0 21 22" fill="none" xmlns="http://www.w3.org/2000/svg">
<path d="M13.7939 19.3174C13.7939 20.0286 13.4308 20.7109 12.7842 21.2139C12.1375 21.7168 11.2602 21.999 10.3457 21.999C9.43115 21.999 8.55392 21.7168 7.90723 21.2139C7.26053 20.7109 6.89746 20.0287 6.89746 19.3174H13.7939ZM10.3447 0C15.9053 0 17.8341 4.32751 18.1035 6.49121V12.1904C18.1035 12.995 18.42 13.7675 18.9844 14.3408L20.2178 15.5928C20.5206 15.9004 20.6904 16.3154 20.6904 16.7471C20.6903 17.6552 19.954 18.3914 19.0459 18.3916H1.64453C0.736303 18.3916 0.000103415 17.6553 0 16.7471C0 16.3154 0.169817 15.9004 0.472656 15.5928L1.70508 14.3408C2.26949 13.7674 2.58591 12.995 2.58594 12.1904V6.49121C2.85534 4.32754 4.78437 0.000130047 10.3447 0Z" fill="#383230"/>
</svg>
