<svg width="22" height="20" viewBox="0 0 22 20" fill="none" xmlns="http://www.w3.org/2000/svg">
<path d="M21.0908 10.0009C21.0907 12.2438 20.2991 14.4219 18.8428 16.1845C17.3864 17.947 15.3495 19.1921 13.0605 19.7197C10.7715 20.247 8.36206 20.0262 6.2207 19.0927C4.51889 18.3507 3.066 17.1914 2 15.746V18.0956H0V12.3818H5.81836V14.3818H3.27637C4.16923 15.7338 5.45947 16.8142 6.99414 17.4833C8.75647 18.2516 10.7392 18.4339 12.623 17.9999C14.507 17.5658 16.1831 16.5404 17.3818 15.0898C18.5804 13.6391 19.2323 11.8468 19.2324 10.0009H21.0908ZM8.12109 0.281189C10.4101 -0.246265 12.8195 -0.0252963 14.9609 0.908142C16.6625 1.65 18.1158 2.80878 19.1816 4.25385V1.90521H21.1816V7.61908H21.0908V7.62006H15.3633V5.62006H17.9062C17.0133 4.2675 15.7226 3.18682 14.1875 2.51752C12.4251 1.7493 10.4424 1.56684 8.55859 2.00092C6.67475 2.43511 4.99842 3.46044 3.7998 4.91107C2.60125 6.36181 1.94922 8.15494 1.94922 10.0009H0.0908203C0.0908205 7.75792 0.882525 5.57909 2.33887 3.81635C3.79519 2.05379 5.83222 0.808825 8.12109 0.281189Z" fill="#BDBDBD"/>
</svg>
